<?xml version="1.0" encoding="utf-8"?>
<!-- Svg Vector Icons : http://www.onlinewebfonts.com/icon -->
<!DOCTYPE svg PUBLIC "-//W3C//DTD SVG 1.1//EN" "http://www.w3.org/Graphics/SVG/1.1/DTD/svg11.dtd">
<svg version="1.1" xmlns="http://www.w3.org/2000/svg" xmlns:xlink="http://www.w3.org/1999/xlink" x="0px" y="0px" viewBox="0 0 1000 1000" enable-background="new 0 0 1000 1000" xml:space="preserve">
<metadata> Svg Vector Icons : http://www.onlinewebfonts.com/icon </metadata>
<g><path d="M780,710V80c0-38.7-31.3-70-70-70H80c-38.7,0-70,31.3-70,70v630c0,38.6,31.3,70,70,70h630C748.7,780,780,748.6,780,710z M640,710H150c-38.7,0-70-31.4-70-70V150c0-38.7,31.3-70,70-70h490c38.7,0,70,31.3,70,70v490C710,678.6,678.7,710,640,710z M920,220h-70v70c38.7,0,70,31.3,70,70v490c0,38.6-31.3,70-70,70H360c-38.7,0-70-31.4-70-70h-70v70c0,38.6,31.3,70,70,70h630c38.7,0,70-31.4,70-70V290C990,251.3,958.7,220,920,220z"/></g>
</svg>