<svg width="24" height="24" viewBox="0 0 24 24" fill="none" xmlns="http://www.w3.org/2000/svg">
<path d="M2.50003 8.86L11.5 14.06C11.652 14.1478 11.8245 14.194 12 14.194C12.1756 14.194 12.348 14.1478 12.5 14.06L21.5 8.86C21.6512 8.77275 21.7768 8.64746 21.8646 8.49659C21.9523 8.34572 21.999 8.17452 22 8C22.0007 7.82379 21.9549 7.65053 21.8671 7.49775C21.7792 7.34497 21.6526 7.21811 21.5 7.13L12.5 1.94C12.348 1.85224 12.1756 1.80603 12 1.80603C11.8245 1.80603 11.652 1.85224 11.5 1.94L2.50003 7.13C2.34743 7.21811 2.22081 7.34497 2.13301 7.49775C2.04521 7.65053 1.99933 7.82379 2.00003 8C2.00108 8.17452 2.04779 8.34572 2.13551 8.49659C2.22322 8.64746 2.34889 8.77275 2.50003 8.86V8.86ZM12 4L19 8L12 12L5.00003 8L12 4ZM20.5 11.17L12 16L3.50003 11.13C3.3859 11.0639 3.25981 11.021 3.12903 11.0038C2.99825 10.9866 2.86537 10.9955 2.73803 11.0299C2.61069 11.0643 2.49141 11.1235 2.38706 11.2042C2.28271 11.2849 2.19536 11.3854 2.13003 11.5C1.99966 11.7296 1.96539 12.0015 2.03471 12.2563C2.10403 12.5111 2.2713 12.7281 2.50003 12.86L11.5 18.06C11.652 18.1478 11.8245 18.194 12 18.194C12.1756 18.194 12.348 18.1478 12.5 18.06L21.5 12.86C21.7288 12.7281 21.896 12.5111 21.9654 12.2563C22.0347 12.0015 22.0004 11.7296 21.87 11.5C21.8047 11.3854 21.7173 11.2849 21.613 11.2042C21.5087 11.1235 21.3894 11.0643 21.262 11.0299C21.1347 10.9955 21.0018 10.9866 20.871 11.0038C20.7403 11.021 20.6142 11.0639 20.5 11.13V11.17ZM20.5 15.17L12 20L3.50003 15.13C3.3859 15.0639 3.25981 15.021 3.12903 15.0038C2.99825 14.9866 2.86537 14.9955 2.73803 15.0299C2.61069 15.0643 2.49141 15.1235 2.38706 15.2042C2.28271 15.2849 2.19536 15.3854 2.13003 15.5C1.99966 15.7296 1.96539 16.0015 2.03471 16.2563C2.10403 16.5111 2.2713 16.7281 2.50003 16.86L11.5 22.06C11.652 22.1478 11.8245 22.194 12 22.194C12.1756 22.194 12.348 22.1478 12.5 22.06L21.5 16.86C21.7288 16.7281 21.896 16.5111 21.9654 16.2563C22.0347 16.0015 22.0004 15.7296 21.87 15.5C21.8047 15.3854 21.7173 15.2849 21.613 15.2042C21.5087 15.1235 21.3894 15.0643 21.262 15.0299C21.1347 14.9955 21.0018 14.9866 20.871 15.0038C20.7403 15.021 20.6142 15.0639 20.5 15.13V15.17Z" fill="#C4C4C4"/>
</svg>
